<svg aria-hidden="true" style="position: absolute; width: 0; height: 0; overflow: hidden;" version="1.1" xmlns="http://www.w3.org/2000/svg" xmlns:xlink="http://www.w3.org/1999/xlink">
<defs>
<symbol id="icon-GET-IT-ON" viewBox="0 0 164 32">
<path d="M27.058 16.747c0 3.556-1.055 6.388-3.164 8.498-2.37 2.513-5.487 3.769-9.351 3.769-3.698 0-6.827-1.28-9.387-3.84s-3.84-5.713-3.84-9.458c0-3.745 1.28-6.898 3.84-9.458s5.689-3.84 9.387-3.84c1.873 0 3.639 0.332 5.298 0.996s3.022 1.6 4.089 2.809l-2.347 2.347c-0.782-0.948-1.802-1.683-3.058-2.204-1.233-0.545-2.56-0.818-3.982-0.818-2.773 0-5.12 0.96-7.040 2.88-1.896 1.944-2.844 4.373-2.844 7.289s0.948 5.345 2.844 7.289c1.92 1.92 4.267 2.88 7.040 2.88 2.536 0 4.646-0.711 6.329-2.133s2.655-3.378 2.916-5.867h-9.244v-3.058h12.338c0.119 0.664 0.178 1.304 0.178 1.92zM45.894 2.987v3.129h-11.591v8.071h10.453v3.058h-10.453v8.071h11.591v3.129h-14.862v-25.458h14.862zM58.978 6.116v22.329h-3.271v-22.329h-7.111v-3.129h17.493v3.129h-7.111zM80.588 28.444h-3.271v-25.458h3.271v25.458zM94.395 6.116v22.329h-3.271v-22.329h-7.111v-3.129h17.493v3.129h-7.111zM136.964 15.716c0 3.769-1.256 6.921-3.769 9.458-2.536 2.56-5.642 3.84-9.316 3.84-3.698 0-6.803-1.28-9.316-3.84-2.513-2.536-3.769-5.689-3.769-9.458s1.256-6.921 3.769-9.458c2.513-2.56 5.618-3.84 9.316-3.84s6.803 1.292 9.316 3.876c2.513 2.536 3.769 5.677 3.769 9.422zM114.137 15.716c0 2.939 0.924 5.369 2.773 7.289 1.873 1.92 4.196 2.88 6.969 2.88s5.084-0.96 6.933-2.88c1.873-1.896 2.809-4.326 2.809-7.289s-0.936-5.393-2.809-7.289c-1.849-1.92-4.16-2.88-6.933-2.88s-5.096 0.96-6.969 2.88c-1.849 1.92-2.773 4.35-2.773 7.289zM144.095 28.444h-3.271v-25.458h3.982l12.373 19.804h0.142l-0.142-4.907v-14.898h3.271v25.458h-3.413l-12.942-20.764h-0.142l0.142 4.907v15.858z"></path>
</symbol>
<symbol id="icon-google-play" viewBox="0 0 158 32">
<path d="M122.705 24.341h3.475v-23.491h-3.475v23.491zM154.003 9.311l-3.983 10.185h-0.119l-4.134-10.185h-3.743l6.199 14.235-3.533 7.919h3.622l9.555-22.153h-3.864zM134.297 21.672c-1.14 0-2.726-0.573-2.726-1.996 0-1.811 1.976-2.507 3.683-2.507 1.527 0 2.248 0.333 3.175 0.785-0.27 2.176-2.126 3.717-4.132 3.717zM134.716 8.798c-2.516 0-5.123 1.118-6.199 3.597l3.084 1.299c0.659-1.299 1.886-1.723 3.175-1.723 1.797 0 3.624 1.088 3.654 3.024v0.241c-0.629-0.363-1.976-0.906-3.624-0.906-3.324 0-6.71 1.843-6.71 5.288 0 3.144 2.726 5.169 5.78 5.169 2.337 0 3.626-1.058 4.434-2.298h0.119v1.814h3.354v-9.007c0-4.17-3.084-6.496-7.067-6.496zM113.242 12.171h-4.942v-8.052h4.942c2.598 0 4.073 2.17 4.073 4.025 0 1.821-1.475 4.027-4.073 4.027zM113.152 0.849h-8.326v23.491h3.473v-8.9h4.853c3.851 0 7.637-2.815 7.637-7.297s-3.786-7.295-7.637-7.295zM67.751 21.676c-2.4 0-4.41-2.028-4.41-4.812 0-2.815 2.009-4.875 4.41-4.875 2.371 0 4.229 2.060 4.229 4.875 0 2.785-1.858 4.812-4.229 4.812zM71.742 10.627h-0.121c-0.78-0.938-2.279-1.785-4.169-1.785-3.961 0-7.59 3.51-7.59 8.022 0 4.48 3.629 7.962 7.59 7.962 1.89 0 3.389-0.848 4.169-1.817h0.121v1.152c0 3.057-1.62 4.692-4.231 4.692-2.13 0-3.451-1.545-3.991-2.847l-3.030 1.272c0.87 2.12 3.181 4.722 7.020 4.722 4.080 0 7.531-2.422 7.531-8.325v-14.351h-3.3v1.302zM77.442 24.341h3.481v-23.493h-3.481v23.493zM86.051 16.591c-0.089-3.087 2.371-4.662 4.14-4.662 1.382 0 2.551 0.695 2.94 1.695l-7.080 2.967zM96.851 13.926c-0.659-1.785-2.67-5.085-6.78-5.085-4.080 0-7.469 3.238-7.469 7.992 0 4.48 3.359 7.992 7.858 7.992 3.631 0 5.732-2.24 6.601-3.542l-2.7-1.817c-0.899 1.332-2.13 2.21-3.901 2.21-1.769 0-3.030-0.817-3.84-2.42l10.59-4.422-0.359-0.908zM12.48 11.294v3.39h8.039c-0.24 1.907-0.87 3.3-1.829 4.268-1.171 1.182-3.002 2.484-6.21 2.484-4.952 0-8.821-4.027-8.821-9.022 0-4.997 3.87-9.022 8.821-9.022 2.67 0 4.62 1.060 6.059 2.422l2.371-2.392c-2.011-1.937-4.68-3.422-8.43-3.422-6.78 0-12.48 5.572-12.48 12.414s5.7 12.412 12.48 12.412c3.659 0 6.419-1.212 8.579-3.482 2.222-2.24 2.91-5.388 2.91-7.932 0-0.787-0.060-1.513-0.18-2.118h-11.309zM33.111 21.676c-2.4 0-4.471-1.998-4.471-4.843 0-2.877 2.071-4.844 4.471-4.844 2.398 0 4.469 1.967 4.469 4.844 0 2.845-2.071 4.843-4.469 4.843zM33.111 8.841c-4.382 0-7.951 3.36-7.951 7.992 0 4.602 3.57 7.992 7.951 7.992 4.38 0 7.95-3.39 7.95-7.992 0-4.632-3.57-7.992-7.95-7.992zM50.453 21.676c-2.4 0-4.471-1.998-4.471-4.843 0-2.877 2.071-4.844 4.471-4.844s4.469 1.967 4.469 4.844c0 2.845-2.069 4.843-4.469 4.843zM50.453 8.841c-4.38 0-7.949 3.36-7.949 7.992 0 4.602 3.57 7.992 7.949 7.992s7.95-3.39 7.95-7.992c0-4.632-3.57-7.992-7.95-7.992z"></path>
</symbol>
<symbol id="icon-close" viewBox="0 0 32 32">
<path stroke-linejoin="round" stroke-linecap="round" stroke-miterlimit="4" stroke-width="3.5556" d="M1.778 1.778l28.444 28.444"></path>
<path stroke-linejoin="round" stroke-linecap="round" stroke-miterlimit="4" stroke-width="3.5556" d="M1.778 30.222l28.444-28.444"></path>
</symbol>
<symbol id="icon-play-store" viewBox="0 0 32 32">
<path fill="#ea4335" style="fill: var(--color1, #ea4335)" d="M15.562 15.467l-12.575 13.455c0.001 0.002 0.001 0.006 0.002 0.008 0.386 1.461 1.709 2.536 3.28 2.536 0.628 0 1.218-0.172 1.723-0.472l0.040-0.024 14.154-8.234-6.625-7.271z"></path>
<path fill="#fbbc04" style="fill: var(--color2, #fbbc04)" d="M27.865 13.62l-0.012-0.008-6.176-3.479-6.958 6.017 6.983 6.783 6.142-3.444c1.077-0.566 1.808-1.669 1.808-2.94 0-1.264-0.721-2.362-1.788-2.929z"></path>
<path fill="#4285f4" style="fill: var(--color3, #4285f4)" d="M3.099 3.733c-0.074 0.282-0.113 0.578-0.113 0.883v23.835c0 0.306 0.039 0.602 0.114 0.882l12.686-13.143-12.687-12.457z"></path>
<path fill="#34a853" style="fill: var(--color4, #34a853)" d="M15.671 15.467l6.516-6.397-14.155-8.059c-0.514-0.303-1.115-0.477-1.757-0.477-1.573 0-2.9 1.051-3.286 2.477 0 0.001-0.001 0.002-0.001 0.003l12.684 12.453z"></path>
</symbol>
<symbol id="icon-stars" viewBox="0 0 157 32">
<path d="M17.333 0l3.592 11.056h11.625l-9.404 6.833 3.592 11.056-9.405-6.833-9.405 6.833 3.592-11.056-9.405-6.833h11.625l3.592-11.056z"></path>
<path d="M48 0l3.592 11.056h11.625l-9.405 6.833 3.592 11.056-9.405-6.833-9.405 6.833 3.592-11.056-9.405-6.833h11.625l3.592-11.056z"></path>
<path d="M80 0l3.592 11.056h11.625l-9.405 6.833 3.592 11.056-9.405-6.833-9.405 6.833 3.592-11.056-9.405-6.833h11.625l3.592-11.056z"></path>
<path d="M112 0l3.592 11.056h11.625l-9.405 6.833 3.592 11.056-9.405-6.833-9.405 6.833 3.592-11.056-9.405-6.833h11.625l3.592-11.056z"></path>
<path d="M141.333 0l3.592 11.056h11.625l-9.405 6.833 3.592 11.056-9.405-6.833-9.405 6.833 3.592-11.056-9.405-6.833h11.625l3.592-11.056z"></path>
</symbol>
<symbol id="icon-arrow" viewBox="0 0 32 32">
<path stroke-linejoin="round" stroke-linecap="round" stroke-miterlimit="4" stroke-width="1.8462" d="M30.769 16h-29.538M1.231 16l11.077-11.077M1.231 16l11.077 11.077"></path>
</symbol>
<symbol id="icon-right-arrow" viewBox="0 0 32 32">
<path d="M4 2v28l22-14-22-14z"></path>
</symbol>
<symbol id="icon-burger" viewBox="0 0 32 32">
<path stroke-linejoin="round" stroke-linecap="round" stroke-miterlimit="4" stroke-width="2.6667" d="M2 26.444h28M2 15.778h28M2 5.111h28"></path>
</symbol>
<symbol id="icon-left-arrow" viewBox="0 0 32 32">
<path d="M30.4 0.084v31.832l-26.4-15.916 26.4-15.916z"></path>
</symbol>
</defs>
</svg>
